<mxfile host="app.diagrams.net" agent="Mozilla/5.0 (Macintosh; Intel Mac OS X 10_15_7) AppleWebKit/605.1.15 (KHTML, like Gecko) Version/17.5 Safari/605.1.15" version="24.8.2">
  <diagram name="第 1 页" id="R6g4_k_lo_HqXa_tKg9e">
    <mxGraphModel dx="1242" dy="728" grid="1" gridSize="10" guides="1" tooltips="1" connect="1" arrows="1" fold="1" page="1" pageScale="1" pageWidth="827" pageHeight="1169" math="0" shadow="0">
      <root>
        <mxCell id="0" />
        <mxCell id="1" parent="0" />
        <mxCell id="IqsxcXfb04PyP9Ou5wMe-5" style="edgeStyle=orthogonalEdgeStyle;rounded=0;orthogonalLoop=1;jettySize=auto;html=1;exitX=0.5;exitY=1;exitDx=0;exitDy=0;entryX=0.5;entryY=0;entryDx=0;entryDy=0;" edge="1" parent="1" source="IqsxcXfb04PyP9Ou5wMe-1" target="IqsxcXfb04PyP9Ou5wMe-4">
          <mxGeometry relative="1" as="geometry" />
        </mxCell>
        <mxCell id="IqsxcXfb04PyP9Ou5wMe-1" value="打开购物车" style="rounded=1;whiteSpace=wrap;html=1;" vertex="1" parent="1">
          <mxGeometry x="320" y="40" width="120" height="40" as="geometry" />
        </mxCell>
        <mxCell id="IqsxcXfb04PyP9Ou5wMe-12" style="edgeStyle=orthogonalEdgeStyle;rounded=0;orthogonalLoop=1;jettySize=auto;html=1;exitX=0.5;exitY=1;exitDx=0;exitDy=0;" edge="1" parent="1" source="IqsxcXfb04PyP9Ou5wMe-4" target="IqsxcXfb04PyP9Ou5wMe-11">
          <mxGeometry relative="1" as="geometry" />
        </mxCell>
        <mxCell id="IqsxcXfb04PyP9Ou5wMe-4" value="获取购物车商品" style="rounded=1;whiteSpace=wrap;html=1;" vertex="1" parent="1">
          <mxGeometry x="320" y="120" width="120" height="40" as="geometry" />
        </mxCell>
        <mxCell id="IqsxcXfb04PyP9Ou5wMe-27" style="edgeStyle=orthogonalEdgeStyle;rounded=0;orthogonalLoop=1;jettySize=auto;html=1;exitX=0.5;exitY=1;exitDx=0;exitDy=0;entryX=0;entryY=0.5;entryDx=0;entryDy=0;" edge="1" parent="1" source="IqsxcXfb04PyP9Ou5wMe-8" target="IqsxcXfb04PyP9Ou5wMe-26">
          <mxGeometry relative="1" as="geometry" />
        </mxCell>
        <mxCell id="IqsxcXfb04PyP9Ou5wMe-8" value="创建促销商品队列池" style="rounded=1;whiteSpace=wrap;html=1;" vertex="1" parent="1">
          <mxGeometry x="190" y="340" width="120" height="40" as="geometry" />
        </mxCell>
        <mxCell id="IqsxcXfb04PyP9Ou5wMe-16" style="edgeStyle=orthogonalEdgeStyle;rounded=0;orthogonalLoop=1;jettySize=auto;html=1;exitX=0.5;exitY=1;exitDx=0;exitDy=0;entryX=0.5;entryY=0;entryDx=0;entryDy=0;" edge="1" parent="1" source="IqsxcXfb04PyP9Ou5wMe-11" target="IqsxcXfb04PyP9Ou5wMe-15">
          <mxGeometry relative="1" as="geometry" />
        </mxCell>
        <mxCell id="IqsxcXfb04PyP9Ou5wMe-21" value="是" style="edgeLabel;html=1;align=center;verticalAlign=middle;resizable=0;points=[];" vertex="1" connectable="0" parent="IqsxcXfb04PyP9Ou5wMe-16">
          <mxGeometry x="-0.15" relative="1" as="geometry">
            <mxPoint as="offset" />
          </mxGeometry>
        </mxCell>
        <mxCell id="IqsxcXfb04PyP9Ou5wMe-11" value="是否是促销商品？" style="rhombus;whiteSpace=wrap;html=1;" vertex="1" parent="1">
          <mxGeometry x="300" y="193" width="160" height="47" as="geometry" />
        </mxCell>
        <mxCell id="IqsxcXfb04PyP9Ou5wMe-17" style="edgeStyle=orthogonalEdgeStyle;rounded=0;orthogonalLoop=1;jettySize=auto;html=1;exitX=0;exitY=0.5;exitDx=0;exitDy=0;entryX=0.5;entryY=0;entryDx=0;entryDy=0;" edge="1" parent="1" source="IqsxcXfb04PyP9Ou5wMe-15" target="IqsxcXfb04PyP9Ou5wMe-8">
          <mxGeometry relative="1" as="geometry" />
        </mxCell>
        <mxCell id="IqsxcXfb04PyP9Ou5wMe-18" value="否" style="edgeLabel;html=1;align=center;verticalAlign=middle;resizable=0;points=[];" vertex="1" connectable="0" parent="IqsxcXfb04PyP9Ou5wMe-17">
          <mxGeometry x="0.1362" y="2" relative="1" as="geometry">
            <mxPoint as="offset" />
          </mxGeometry>
        </mxCell>
        <mxCell id="IqsxcXfb04PyP9Ou5wMe-20" style="edgeStyle=orthogonalEdgeStyle;rounded=0;orthogonalLoop=1;jettySize=auto;html=1;exitX=0.5;exitY=1;exitDx=0;exitDy=0;entryX=0.5;entryY=0;entryDx=0;entryDy=0;" edge="1" parent="1" source="IqsxcXfb04PyP9Ou5wMe-15" target="IqsxcXfb04PyP9Ou5wMe-26">
          <mxGeometry relative="1" as="geometry">
            <mxPoint x="380" y="390" as="targetPoint" />
            <Array as="points">
              <mxPoint x="380" y="359" />
              <mxPoint x="381" y="359" />
            </Array>
          </mxGeometry>
        </mxCell>
        <mxCell id="IqsxcXfb04PyP9Ou5wMe-23" value="是" style="edgeLabel;html=1;align=center;verticalAlign=middle;resizable=0;points=[];" vertex="1" connectable="0" parent="IqsxcXfb04PyP9Ou5wMe-20">
          <mxGeometry x="-0.2055" y="1" relative="1" as="geometry">
            <mxPoint as="offset" />
          </mxGeometry>
        </mxCell>
        <mxCell id="IqsxcXfb04PyP9Ou5wMe-15" value="是否存在促销商品队列？" style="rhombus;whiteSpace=wrap;html=1;" vertex="1" parent="1">
          <mxGeometry x="300" y="280" width="160" height="47" as="geometry" />
        </mxCell>
        <mxCell id="IqsxcXfb04PyP9Ou5wMe-25" value="获取商品唯一标识&lt;div&gt;添加到促销商品队列&lt;/div&gt;" style="rounded=1;whiteSpace=wrap;html=1;" vertex="1" parent="1">
          <mxGeometry x="320" y="510" width="120" height="40" as="geometry" />
        </mxCell>
        <mxCell id="IqsxcXfb04PyP9Ou5wMe-29" style="edgeStyle=orthogonalEdgeStyle;rounded=0;orthogonalLoop=1;jettySize=auto;html=1;exitX=0.5;exitY=1;exitDx=0;exitDy=0;entryX=0.5;entryY=0;entryDx=0;entryDy=0;" edge="1" parent="1" source="IqsxcXfb04PyP9Ou5wMe-26" target="IqsxcXfb04PyP9Ou5wMe-25">
          <mxGeometry relative="1" as="geometry" />
        </mxCell>
        <mxCell id="IqsxcXfb04PyP9Ou5wMe-30" value="是" style="edgeLabel;html=1;align=center;verticalAlign=middle;resizable=0;points=[];" vertex="1" connectable="0" parent="IqsxcXfb04PyP9Ou5wMe-29">
          <mxGeometry x="-0.0411" relative="1" as="geometry">
            <mxPoint as="offset" />
          </mxGeometry>
        </mxCell>
        <mxCell id="IqsxcXfb04PyP9Ou5wMe-32" style="edgeStyle=orthogonalEdgeStyle;rounded=0;orthogonalLoop=1;jettySize=auto;html=1;exitX=1;exitY=0.5;exitDx=0;exitDy=0;entryX=0.5;entryY=0;entryDx=0;entryDy=0;" edge="1" parent="1" source="IqsxcXfb04PyP9Ou5wMe-26" target="IqsxcXfb04PyP9Ou5wMe-28">
          <mxGeometry relative="1" as="geometry" />
        </mxCell>
        <mxCell id="IqsxcXfb04PyP9Ou5wMe-34" value="否" style="edgeLabel;html=1;align=center;verticalAlign=middle;resizable=0;points=[];" vertex="1" connectable="0" parent="IqsxcXfb04PyP9Ou5wMe-32">
          <mxGeometry x="-0.3803" y="-1" relative="1" as="geometry">
            <mxPoint y="1" as="offset" />
          </mxGeometry>
        </mxCell>
        <mxCell id="IqsxcXfb04PyP9Ou5wMe-26" value="是否存在计时器？" style="rhombus;whiteSpace=wrap;html=1;" vertex="1" parent="1">
          <mxGeometry x="300" y="400" width="160" height="47" as="geometry" />
        </mxCell>
        <mxCell id="IqsxcXfb04PyP9Ou5wMe-33" style="edgeStyle=orthogonalEdgeStyle;rounded=0;orthogonalLoop=1;jettySize=auto;html=1;exitX=0.5;exitY=1;exitDx=0;exitDy=0;entryX=1;entryY=0.5;entryDx=0;entryDy=0;" edge="1" parent="1" source="IqsxcXfb04PyP9Ou5wMe-28" target="IqsxcXfb04PyP9Ou5wMe-25">
          <mxGeometry relative="1" as="geometry" />
        </mxCell>
        <mxCell id="IqsxcXfb04PyP9Ou5wMe-28" value="创建计时器" style="rounded=1;whiteSpace=wrap;html=1;" vertex="1" parent="1">
          <mxGeometry x="460" y="470" width="120" height="40" as="geometry" />
        </mxCell>
      </root>
    </mxGraphModel>
  </diagram>
</mxfile>
